<?xml version="1.0" ?><svg viewBox="0 0 32 32" xmlns="http://www.w3.org/2000/svg"><title/><g data-name="Layer 2" id="Layer_2"><path d="M24.74,9.79l1-.94a.5.5,0,0,0,0-.7.5.5,0,0,0-.71,0l-.91.91a11.56,11.56,0,0,0-7.56-3.53V4.7a.46.46,0,0,0-.06-.23H17a.5.5,0,0,0,.5-.5.5.5,0,0,0-.5-.5H15a.5.5,0,0,0-.5.5.5.5,0,0,0,.5.5h.58a.48.48,0,0,0-.07.23v.83A12,12,0,0,0,4.5,17,12,12,0,0,0,16,28.5,11.94,11.94,0,0,0,27.5,17,11.3,11.3,0,0,0,24.74,9.79ZM16,27.5A10.92,10.92,0,0,1,5.5,17,10.92,10.92,0,0,1,16,6.5,10.9,10.9,0,0,1,26.5,17,10.9,10.9,0,0,1,16,27.5Z"/><path d="M16,15.5a1.51,1.51,0,0,0-.64.15l-5-6a.5.5,0,0,0-.76.64l5,6,0,0a1.59,1.59,0,0,0-.15.65A1.5,1.5,0,1,0,16,15.5Zm0,2a.5.5,0,1,1,.5-.5A.5.5,0,0,1,16,17.5Z"/><path d="M16,9.5a.5.5,0,0,0,.5-.5V8a.5.5,0,0,0-.5-.5.5.5,0,0,0-.5.5V9A.5.5,0,0,0,16,9.5Z"/><path d="M16,24.5a.5.5,0,0,0-.5.5v1a.5.5,0,0,0,.5.5.5.5,0,0,0,.5-.5V25A.5.5,0,0,0,16,24.5Z"/><path d="M25,16.5H24a.5.5,0,0,0,0,1h1a.5.5,0,0,0,0-1Z"/><path d="M8,16.5H7a.5.5,0,0,0,0,1H8a.5.5,0,0,0,0-1Z"/></g></svg>