<?xml version='1.0' encoding='iso-8859-1'?>
<svg version="1.1" xmlns="http://www.w3.org/2000/svg" viewBox="0 0 137.145 137.145" xmlns:xlink="http://www.w3.org/1999/xlink" enable-background="new 0 0 137.145 137.145">
  <g>
    <g>
      <path d="m109.715,0h-82.286c-15.148,0-27.429,12.281-27.429,27.429v82.287c0,15.148 12.28,27.428 27.429,27.428h82.286c15.148,0 27.429-12.28 27.429-27.428v-82.287c0-15.148-12.28-27.429-27.429-27.429zm13.715,102.859c0,11.361-9.21,20.572-20.572,20.572h-68.571c-11.362,0-20.572-9.21-20.572-20.572v-68.572c0-11.362 9.21-20.572 20.572-20.572h68.572c11.362,0 20.572,9.21 20.572,20.572v68.572zm-89.144-75.429h-6.857v82.286h82.287v-6.857h-75.43v-75.429zm20.571,48h-13.714v20.572h13.714v-20.572zm20.572-13.714h-13.715v34.286h13.715v-34.286zm20.572-13.714h-13.715v48h13.714v-48z"/>
    </g>
  </g>
</svg>
