<?xml version='1.0' encoding='iso-8859-1'?>
<svg version="1.1" xmlns="http://www.w3.org/2000/svg" viewBox="0 0 44 44" xmlns:xlink="http://www.w3.org/1999/xlink" enable-background="new 0 0 44 44">
  <path d="m22,0c-12.2,0-22,9.8-22,22s9.8,22 22,22 22-9.8 22-22-9.8-22-22-22zm-7,31c0,0.6-0.4,1-1,1h-2c-0.6,0-1-0.4-1-1v-6c0-0.6 0.4-1 1-1h2c0.6,0 1,0.4 1,1v6zm6,0c0,0.6-0.4,1-1,1h-2c-0.6,0-1-0.4-1-1v-10c0-0.6 0.4-1 1-1h2c0.6,0 1,0.4 1,1v10zm6,0c0,0.6-0.4,1-1,1h-2c-0.6,0-1-0.4-1-1v-14c0-0.6 0.4-1 1-1h2c0.6,0 1,0.4 1,1v14zm6,0c0,0.6-0.4,1-1,1h-2c-0.6,0-1-0.4-1-1v-18c0-0.6 0.4-1 1-1h2c0.6,0 1,0.4 1,1v18z"/>
</svg>
